<?xml version="1.0" encoding="utf-8"?>
<!-- Generator: Adobe Illustrator 23.0.0, SVG Export Plug-In . SVG Version: 6.00 Build 0)  -->
<svg version="1.1" id="Layer_2" xmlns="http://www.w3.org/2000/svg" xmlns:xlink="http://www.w3.org/1999/xlink" x="0px" y="0px"
	 viewBox="0 0 1920 1080" style="enable-background:new 0 0 1920 1080;" xml:space="preserve">
<style type="text/css">
	.st0{fill:#005A95;}
	.st1{fill:#EC1C24;}
	.st2{fill:#EB1D25;}
	.st3{fill:#02ACEC;}
</style>
<path class="st0" d="M1352.87,342.38c-39.99,0-79.97,0-119.96,0c-7.11,0-7.46-0.34-7.46-7.28c0-49.48,0-98.96,0-148.45
	c0-6.81,1.41-8.27,8.03-8.27c10.66-0.01,21.33-0.01,31.99,0c6.42,0.01,7.97,1.52,7.97,7.83c0.01,36.82,0.08,73.64-0.09,110.46
	c-0.02,4.44,0.94,5.92,5.67,5.83c16.82-0.31,33.65-0.23,50.48-0.04c3.83,0.04,5.11-0.85,5.05-4.92c-0.24-16.82-0.11-33.65-0.1-50.48
	c0-6.02,1.64-7.68,7.62-7.68c11.5-0.02,22.99,0.09,34.49-0.05c4.26-0.05,5.97,1.62,5.94,5.9c-0.12,17.49,0.06,34.99-0.13,52.48
	c-0.04,3.7,0.9,4.82,4.7,4.76c13.82-0.23,27.66-0.23,41.48,0c3.91,0.07,5.01-0.99,5-4.96c-0.15-37.32-0.09-74.64-0.09-111.96
	c0-6.68,0.47-7.16,7.07-7.17c11.16-0.01,22.33-0.02,33.49,0c5.66,0.01,7.43,1.76,7.43,7.36c0.01,49.65,0.01,99.3,0,148.95
	c0,6.02-1.64,7.68-7.62,7.68C1433.51,342.38,1393.19,342.38,1352.87,342.38z"/>
<path class="st1" d="M734.22,416.96c-0.5-9.3-1.42-18.72-3.56-27.75c-7.52-31.6-25.98-56.19-50.54-76.72
	c-21.38-17.87-45.85-29.96-71.88-39.31c-19.86-7.13-40.31-11.87-60.97-15.76c-8.99-1.69-18.09-2.76-27.16-4.04
	c-0.98-0.14-2.78-0.57-2.51,1.31c1.04,7.17,1.37,14.38,1.93,21.58c1.03,13.26,2.76,26.46,3.69,39.73c0.24,3.35,1.43,4.77,4.24,5.19
	c14.76,2.24,28.88,6.79,42.71,12.17c30.92,12.04,58.47,28.94,78.75,55.98c15.28,20.37,22.85,43.58,24.39,68.77
	c1.2,19.71-2,39.04-7.15,57.97c-1.75,6.45-2.94,13.29-6.39,19.08c-0.03,0.04-0.06,0.1-0.09,0.16c-0.06,0.55-0.2,1.08-0.42,1.58
	c0,0,0,0,0,0c0,0.01,0,0.01,0,0.02c-0.12,0.5-0.32,0.56-0.54,1.16c-0.17,0.46-0.28,0.88-0.35,1.24c-0.16,0.44-0.32,0.91-0.47,1.41
	c-0.14,0.47-0.26,0.92-0.36,1.35c-0.18,0.4-0.36,0.85-0.52,1.36c-0.14,0.43-0.24,0.84-0.32,1.22c-0.53,1.29-0.97,2.33-1.27,3.02
	c-0.19,0.44-0.57,1.45-1.35,3.47c-0.44,1.16-0.62,1.63-0.39,1.86c0.31,0.32,0.99,0.06,2.52-0.23c1.05-0.2,1.93-0.29,2.53-0.34
	c0.68-0.32,1.19-0.36,1.57-0.33c0.28-0.07,0.59-0.11,0.9-0.13c0.39-0.07,0.78-0.14,1.18-0.18c0.16-0.06,0.31-0.12,0.47-0.17
	c0.41-0.12,0.83-0.2,1.26-0.25c0.31-0.12,0.64-0.21,1-0.26c0.86-0.36,2.18-0.92,3.78-1.63c0,0,15.26-6.83,27.13-15.49
	c17.1-12.49,35.75-48.2,38.23-83.48C735.02,439.39,734.82,428.12,734.22,416.96z"/>
<path class="st0" d="M900.38,375.38c-31,0-61.99,0-92.99,0c-6.35,0-6.93-0.57-6.93-6.8c-0.01-14.5-0.43-29.01,0.1-43.49
	c0.74-20.04,7.17-38.15,21.48-52.65c9.1-9.21,21.09-13.22,33.42-15.98c7.42-1.66,14.98-2.42,22.63-2.14c2.17,0.08,3.1,0.68,3.79,2.8
	c3.07,9.37,6.44,18.64,9.58,27.99c2.24,6.65,0.32,9.15-6.53,9.32c-9.38,0.22-18.66,1.87-25.86,8.1
	c-9.04,7.83-10.82,18.82-10.63,30.24c0.06,3.76,2.81,2.58,4.66,2.58c24.83,0.06,49.66,0.04,74.49,0.04c7.33,0,14.67-0.14,21.99,0.07
	c3.12,0.09,3.95-0.95,3.93-3.98c-0.14-15,0.3-30.01-0.15-44.99c-0.68-22.74,15.55-39.96,35.72-45.07
	c5.78-1.46,11.62-2.16,17.63-2.09c16.83,0.19,33.66,0.06,50.49,0.07c6.78,0,7.24,0.44,7.24,7c0.01,29.66,0.01,59.32,0,88.99
	c0,6.43-0.54,7-6.73,7.01c-11.5,0.02-23,0.02-34.49,0c-6.21-0.01-6.77-0.58-6.77-6.97c-0.01-17-0.09-34,0.07-50.99
	c0.04-3.67-0.57-5.33-4.81-5.15c-7.82,0.33-10.26,2.49-10.26,10.4c0,25.83,0,51.66,0,77.49c0,6.08-2.1,8.22-8.09,8.22
	C962.37,375.38,931.37,375.38,900.38,375.38z"/>
<path class="st1" d="M942.37,575.85c-11.09,10.21-22.53,19.47-35.13,27.26c-17.08,10.56-35.01,19.06-55.07,22.21
	c-12.36,1.94-24.52,1.33-36.42-2.93c-13.17-4.71-22.86-18.81-23.42-32.75c-0.59-14.56,1.45-28.32,10.19-40.27
	c12.43-17,28.88-27.86,49.99-30.99c10.5-1.56,21.05-2.34,31.31,1.09c5.05,1.68,9.98,3.81,13.16,8.78
	c5.71,8.94,4.59,21.13-2.79,28.95c-11.94,12.65-27.18,18.97-43.58,23.2c-9.58,2.47-19.39,3.15-29.19,3.91
	c-2.48,0.19-3.03,0.99-3,3.26c0.15,11.99,9.93,21.73,22.06,22.9c21.21,2.05,39.26-6.26,56.75-16.5
	c17.69-10.36,32.13-24.64,46.38-39.14c5.87-5.97,7.44-13.45,9.2-21.1c4.1-17.78,8.35-35.53,12.79-53.23
	c0.74-2.95,0.88-3.09-2.34-2.61c-8.09,1.22-16.09-0.02-23.36-3.82c-6.71-3.5-8.27-9.7-7.19-17.38c20.66,8.36,41.38,8.97,62.81-1.07
	c-3.1,12.8-6,24.43-8.73,36.09c-7.12,30.47-14.29,60.93-21.08,91.47c-1.07,4.79-2.19,9.84-0.39,15.07c1.81,5.28,5.28,8.7,10.77,9.16
	c9.56,0.8,17.81-2.55,25.07-8.31c13.54-10.74,23.36-24.9,34.45-37.91c9.14-10.72,10.14-24.52,15.24-36.74
	c1.36-3.27-1.77-1.96-2.85-1.98c-11.69-0.2-23.39-0.46-34.95,3.09c3.69-9.35,11.15-16.14,21.27-16.16
	c5.83-0.01,11.67-0.17,17.5,0.06c3.28,0.13,4.84-0.69,5.86-4.18c1.64-5.6,4.12-10.93,7.28-15.98c5.17-8.27,13.26-10.77,22.07-11.82
	c4.11-0.49,8.32-0.08,13.35-0.08c-7.94,9.96-13.73,20.53-18.8,32.36c28.8-1.88,57.21,2.51,85.35-3.19
	c-3.4,11.89-6.69,15.55-19.6,15.74c-22.16,0.32-44.33,0.15-66.5,0.03c-3.24-0.02-4.85,0.65-6.06,4.1
	c-4.67,13.23-9.06,26.56-11.82,40.29c-1.79,8.91-3.8,17.96-1.6,27.32c1.62,6.9,7.91,13.2,15.08,13.32c16.1,0.28,28.59-6.92,38.7-19
	c0.79-0.94,0.97-2.97,2.45-2.71c1.63,0.28,2.33,1.85,3,3.52c1.94,4.87,1.02,9.3-2.33,12.81c-12.02,12.56-26.65,20.28-43.83,23.52
	c-11.56,2.18-21.66-0.13-29.74-8.57c-5.77-6.03-9.01-13.53-9.28-22.15c-0.11-3.52-1.39-7.01,0.96-11.75
	c-7.59,7.57-13.86,14.24-20.57,20.43c-11.78,10.88-24.58,20.54-41.01,22.59c-17.15,2.14-32.78-7.29-34.26-27.26
	C939.95,591.16,940.27,583.48,942.37,575.85z M819.43,572.94c11.18,1.97,31.83-4.39,42.6-11.72c6.86-4.66,12.74-10.26,14.96-18.8
	c1.58-6.07-1.4-12.01-7.26-14.08c-6.76-2.39-12.99-0.38-18.94,2.4C832.81,539.13,824.22,554.58,819.43,572.94z"/>
<path class="st1" d="M1410.13,571.57c-5.99,10.98-12.04,20.24-18.73,29.07c-8.93,11.79-19.29,21.44-34.65,24.19
	c-3.86,0.69-7.58,0.07-12.08,0.78c3.55-10.63,3.27-21.15,2.65-31.54c-0.61-10.21-1.99-20.41-5.23-31.12
	c-3.11,4.71-6.92,7.88-10.19,11.55c-14.7,16.47-31.6,30.1-51.67,39.4c-9.7,4.5-19.96,7.29-30.87,3.93
	c-9.38-2.89-14.66-12.28-15.98-22.71c-1.1-8.73-1.38-17.37-0.47-26.36c-3.8,5.14-7.47,10.39-11.43,15.41
	c-13.18,16.72-28.31,31.18-48.44,39.23c-9.93,3.97-19.95,4.71-29.42-1.94c-6.83-4.8-9.82-11.83-11.05-19.51
	c-2.78-17.33,0.94-33.54,10.28-48.31c12.24-19.34,29.33-32.5,52.14-35.95c14.55-2.2,29.24,0.09,43.01,5.99
	c2.89,1.24,4.67,1.54,7.23-1.24c3.26-3.54,8.33-4.47,13.03-4.94c4.57-0.46,9.22-0.1,14.84-0.1c-7.67,10.92-10.45,22.79-12.96,34.72
	c-2.69,12.8-3.94,25.71-1.63,38.72c1.33,7.5,7.72,11.04,15.19,8.91c11.96-3.4,21.55-10.79,31.06-18.25
	c9.96-7.81,18.26-17.41,27.28-26.23c6.5-6.36,6.29-6.36,2.97-14.89c-3.18-8.17-7.34-15.72-13.28-22.17
	c-2.87-3.12,0.47-3.29,1.8-3.72c18.45-5.92,26.16-3.87,34.73,17.05c6.59,16.07,9.64,33.17,11.28,50.5
	c0.59,6.2,1.82,12.34,2.06,19.47c5.02-4.53,8.79-9.41,12.43-14.3c10.46-14.03,20.54-28.31,25.67-45.39c1-3.32,2.1-6.59,1.73-10.09
	c-0.23-2.15,0.46-3.18,2.68-3.74c6.17-1.53,12.29-3.05,18.72-1.62c3.11,0.69,4.84,2.03,4.7,5.7c-0.33,8.92-3.05,17.38-4.62,26.05
	c-0.5,2.78-0.61,5.59-0.82,8.3c-0.89,11.52-2.51,23.14,1.23,34.53c3.02,9.18,10.5,12.4,19.26,8.42c8-3.64,12.34-10.58,16.19-17.84
	c5.82-10.96,8.69-22.72,9.9-35.12c0.64-6.51,0.56-12.65-1.12-18.89c-1.15-4.3-3.25-7.93-7.2-10.13c-2.01-1.12-1.87-2.21-0.2-3.12
	c6.46-3.52,13.02-6.21,20.78-5.21c8.07,1.04,11.16,7.59,11.48,14.29c0.87,18.31-5.34,34.74-13.93,50.47
	c-5.42,9.92-12,19.02-18.97,27.96c-9.31,11.96-30.48,19.18-44.31,13.31c-8.34-3.54-11.99-11.25-13.74-19.83
	C1409.29,594.62,1411.16,583.8,1410.13,571.57z M1156.45,586.34c0,1.83-0.06,3.66,0.01,5.49c0.43,11.99,10.76,18.45,21.38,12.91
	c8.5-4.43,14.89-11.17,21.61-17.59c13.37-12.78,24.23-27.79,36.44-41.6c2.3-2.6,1.75-3.88-1.03-5.05
	c-7.65-3.23-15.11-6.94-23.2-9.02c-12.71-3.26-24.71-2.29-34.77,7.03C1163.03,551.37,1156.55,567.52,1156.45,586.34z"/>
<path class="st0" d="M1203.45,288.5c0,18.33-0.47,36.68,0.11,54.99c0.85,26.87-16.48,43.99-39.85,49.92
	c-12.27,3.12-24.66,4.36-37.29,4.04c-2.51-0.06-3.74-0.62-4.59-3.14c-3.29-9.82-6.15-19.78-10.04-29.4
	c-1.58-3.9,1.32-7.52,5.87-7.49c9.28,0.07,18.5-0.1,27.66-1.99c4.66-0.96,8.56-2.62,9.85-7.6c0.83-3.2,0.82-5.61-3.99-5.55
	c-18.66,0.25-37.33,0.1-55.99,0.1c-8.74,0-8.74,0-8.74-8.5c0-17.5-0.88-35.05,0.26-52.48c1.02-15.58,3.75-31.4,16.18-42.77
	c9.46-8.66,21.45-12.79,33.82-15.15c20.56-3.93,41.41-1.52,62.13-2.06c4.14-0.11,4.65,2.74,4.64,6.1
	C1203.43,247.84,1203.45,268.17,1203.45,288.5z M1155.45,281.93c0-5.81,0.01-11.62-0.01-17.43c0-1.47,0.21-2.89-2.09-3.15
	c-6.55-0.74-14.64,4.41-16.97,10.77c-3.26,8.89-1.48,18.27-2.91,27.33c-0.41,2.56,1.14,2.99,3.3,2.95
	c4.98-0.09,9.97-0.21,14.94,0.04c3.25,0.17,3.88-1.22,3.79-4.08C1155.33,292.89,1155.45,287.41,1155.45,281.93z"/>
<path class="st2" d="M896.46,441.21c-4.52-2.51-9.12-0.13-13.42,0.43c-20.4,2.64-40.72,5.9-60.74,10.75
	c-2.16,0.52-4.33,1.02-6.63,1.18c4.38-3.69,9.86-5.16,15-7.05c21.77-7.99,44.31-13.4,66.99-17.94c17.46-3.5,35.1-6.18,52.82-8.3
	c15.82-1.89,31.63-3.71,47.51-5c15.13-1.23,30.28-2.04,45.41-3.07c49.02-3.33,98.08-1.5,147.12-1.63
	c16.34-0.04,32.74,1.19,49.11,1.93c11.7,0.53,23.42,1.26,35.11,2.01c14.14,0.91,28.28,1.98,42.42,2.93
	c15.26,1.03,30.5,2.43,45.72,3.97c17.79,1.81,35.55,3.98,53.33,5.92c12.89,1.41,25.82,2.51,38.7,4.08
	c14.63,1.78,29.2,3.95,43.81,5.88c13.16,1.74,26.35,3.21,39.48,5.12c16.66,2.42,33.24,5.42,49.92,7.7
	c13.46,1.84,26.84,4.06,40.24,6.26c8.84,1.45,17.67,2.92,27.78,4.6c-8.35,1.14-15.28-0.74-22.28-0.98
	c-4.73-0.16-9.43-1.24-14.17-1.58c-14.6-1.04-29.15-2.6-43.73-3.85c-9.02-0.78-18.06-1.51-27.1-2.15
	c-11.98-0.85-23.98-1.48-35.92-2.94c-2.78-0.34-5.65,0.03-8.48,0.07c-13.8-1.35-27.57-3.1-41.39-3.97
	c-49.69-3.13-99.38-6.3-149.1-8.84c-67.87-3.45-135.79-5.52-203.75-5.88c-60.97-0.32-121.91,0.79-182.71,5.72
	C917.09,437.42,906.54,437.96,896.46,441.21z"/>
<path class="st0" d="M1559.68,342.38c-16.66,0-33.33,0-49.99,0c-6.78,0-7.23-0.44-7.23-7c-0.01-8.33-0.01-16.66,0-25
	c0.01-6.43,1.52-7.99,7.81-7.99c18.33-0.01,36.66-0.01,54.99,0c2.15,0,4.64,0.45,4.18-3.07c-1.33-10.06-3.36-19.83-10.95-27.4
	c-6.16-6.15-13.92-8.63-22.26-9.42c-2.48-0.23-4.92-0.62-7.28-1.22c-2.74-0.71-4.53-2.56-4.52-5.71c0.03-9.5-0.05-19,0.05-28.5
	c0.04-3.51,2.12-5.71,5.59-5.62c23.53,0.61,46.21,4.8,64.05,21.46c11.49,10.73,18.43,24.58,21.38,40.36
	c3.4,18.16,1.31,36.44,1.89,54.66c0.12,3.77-2.5,4.5-5.73,4.49C1594.35,342.35,1577.02,342.38,1559.68,342.38z"/>
<path class="st3" d="M896.46,441.21c10.09-3.26,20.63-3.79,31.04-4.63c60.8-4.93,121.74-6.04,182.71-5.72
	c67.96,0.36,135.89,2.43,203.75,5.88c49.72,2.53,99.41,5.7,149.1,8.84c13.83,0.87,27.6,2.62,41.39,3.97
	c5.92,1.8,12.13,1.78,18.18,2.78c10.78,1.78,21.6,3.29,32.41,4.86c9.85,1.43,19.73,2.68,29.56,4.22
	c13.83,2.17,27.63,4.56,41.45,6.79c9.62,1.55,19.26,2.99,28.87,4.73c-7.07,1.21-14.06-0.33-20.99-1.04
	c-4.18-0.43-8.48-0.74-12.67-1.25c-13.54-1.65-27.22-2.04-40.81-3.3c-17.03-1.58-34.06-2.94-51.13-4.09
	c-12.62-0.85-25.22-2.09-37.85-2.98c-14.62-1.03-29.22-2.1-43.85-3.02c-10.02-0.63-20.04-1.4-30.07-1.99
	c-16.95-1-33.87-2.3-50.85-3.05c-12.19-0.53-24.37-1.37-36.56-1.97c-14.35-0.71-28.71-1.32-43.06-2.01
	c-16.52-0.79-33.05-1.22-49.55-2.09c-11.11-0.59-22.27,0.25-33.27-0.95c-11.8-1.28-23.54-0.27-35.3-0.82
	c-42.4-1.98-84.83-0.92-127.24-0.78c-12.9,0.04-25.87,0.28-38.77,0.92c-14.02,0.69-28.04,1.39-42.07,1.97
	c-13.47,0.56-26.93,1.64-40.35,2.97c-17.75,1.76-35.55,3.4-53.16,6.16c-17.14,2.68-34.28,5.66-51.06,10.29
	c-0.2,0.05-0.49-0.23-1.62-0.81C841.33,453.39,868.66,446.51,896.46,441.21z"/>
<path class="st1" d="M1586.67,605.47c16.09-21.59,30.51-43.09,37.98-68.49c1.66-5.66,2.88-11.38,3.72-17.18
	c0.29-2.01,1-2.53,2.79-2.42c5.66,0.32,11.09,1.64,15.66,5c4.44,3.27,3,8.05,1.86,12.26c-2.88,10.56-9.16,19.45-14.73,28.65
	c-9.84,16.27-21.11,31.57-33.24,46.14c-18.62,22.36-39.21,42.76-64.59,57.55c-11.42,6.65-23.48,11.24-37.32,10.58
	c-12.53-0.6-14.06-8.37-11.4-17.92c0.39-1.4,1.07-2.72,1.61-4.08c16.53,6.89,31.74,2.76,46.9-4.82
	c12.76-6.37,22.09-16.55,31.98-26.24c1.53-1.5,1.28-2.75,0.87-4.77c-5.61-27.36-17.33-51.93-33.93-74.18
	c-2.55-3.41-5.05-7.32-9.11-9.57c-1.9-1.05-1.36-2.44,0.28-3.41c11.28-6.68,25.33-9.22,33.91,6.04
	c11.48,20.41,19.88,42.22,26.54,64.68C1586.58,603.75,1586.55,604.26,1586.67,605.47z"/>
<path class="st0" d="M1360.45,197.25c0-2,0-4,0-6c0-10.29,3.59-14.92,13.66-18.19c18.22-5.91,34.72,7.57,34.25,25.46
	c-0.27,10.28-6.13,19.22-16.12,23.46c-9.15,3.88-21.66,1.16-28.54-5.8c-2.24-2.26-3.45-4.7-3.29-7.94
	C1360.59,204.59,1360.45,200.92,1360.45,197.25z"/>
<path class="st0" d="M1356.45,197.46c0,2.5-0.28,5.03,0.05,7.49c1.57,11.96-5.24,16.03-15.33,18.06
	c-14.95,3.01-27.52-4.38-31.19-19.57c-3.57-14.77,6.89-29.29,20.6-31.21c8.96-1.25,16.48,0.5,23.06,6.76
	c2.11,2.01,3.03,4.08,2.86,6.98C1356.29,189.79,1356.45,193.63,1356.45,197.46z"/>
<g>
	<path class="st1" d="M784.13,441.53c-3.69-14.47-8.77-28.38-15.48-41.62c-6.21-12.26-13.97-23.66-22.98-34.09
		c-4.02-4.65-8.68-8.73-14.03-14.05c2.89,11.92,5.64,22.29,7.89,32.77c4.19,19.6,7.07,39.41,7.41,59.47
		c0.17,9.75,0.3,19.51-0.71,29.32c-1.46,14.29-4.47,28.06-10.23,41.16c-12.56,28.57-33.99,48.71-61,63.4
		c-0.63,0.34-1.43,1.24-2.22,1.49c-0.77,0.84-1.89,1.4-3.35,1.44c-0.32,0.21-0.68,0.37-1.08,0.5c-0.72,0.7-1.69,1.18-2.93,1.27
		c-0.61,0.57-1.41,1.03-2.46,1.44c-8.99,3.49-17.9,7.16-27.23,9.78c-14.79,4.16-29.71,7.31-45.1,7.61
		c-14.39,0.28-28.63-1.35-42.53-5.04c-4.31-1.14-5.2-0.48-5.16,3.99c0.24,27.78,0.11,55.57,0.29,83.35
		c0.01,0.79-0.06,1.46-0.18,2.05c0.14,0.44,0.23,0.89,0.26,1.35c0.14,0.43,0.25,0.87,0.28,1.32c0.45,0.98,0.57,2.1,0.41,3.17
		c0.16,0.32,0.29,0.66,0.38,1.01c0.25,0.26,0.49,0.58,0.72,0.91c0.53,0.17,0.99,0.42,1.39,0.73c0.68,0.05,1.28,0.21,1.81,0.46
		c0.05,0,0.09-0.01,0.14-0.01c0.18,0,0.34,0.03,0.51,0.04c0.05-0.01,0.1,0,0.15-0.01c0.5-0.17,1.07-0.27,1.69-0.27
		c0.12,0,0.23,0.02,0.35,0.03c0.19-0.02,0.39-0.03,0.59-0.03c0.19,0,0.36,0.02,0.54,0.04c0.21-0.02,0.42-0.04,0.64-0.04
		c0.35,0,0.67,0.03,0.98,0.09c0.32-0.04,0.64-0.07,0.95-0.07c13.23,0.22,26.31-1.19,39.42-2.95c15.09-2.03,29.94-5.04,44.55-9.19
		c22.86-6.49,44.77-15.31,65.05-27.88c17.91-11.09,33.75-24.51,47.41-40.63c12.63-14.9,22.73-31.28,29.23-49.6
		c6.05-17.04,8.47-35.02,9.36-52.98C791.03,487.87,789.99,464.51,784.13,441.53z"/>
	<path class="st2" d="M542.99,678.6l-0.05,1.48l0.18,3.54l0.41,6.32l0.47,1.11c0.56,1.55,1.43,2.44,2.4,3.08l4.15,0.66l3.41-0.35
		L542.99,678.6z"/>
</g>
<g>
	<path class="st0" d="M538.56,693.02c-0.19-0.86-0.19-1.77,0.03-2.62c-0.19-0.77-0.23-1.58-0.1-2.36c-0.36-1.19,0.01-2.51,0.01-3.71
		c-0.06-27.5-0.14-55,0.06-82.5c0.03-4.32-0.91-5.7-5.45-5.56c-11.99,0.36-24,0.2-36,0.06c-2.72-0.03-6.46,0.68-6.61-3.81
		c-0.16-4.8-0.68-9.58-0.89-14.34c-0.53-11.83-0.51-23.68-1-35.52c-0.6-14.58-1.47-29.14-2-43.72c-0.72-19.7-1.79-39.37-2.99-59.04
		c-0.86-14.03-1.44-28.11-2.01-42.16c-0.63-15.56-1.15-31.11-2.05-46.66c-0.58-9.97,0.1-20.01-0.33-29.99
		c-0.21-4.84,2.08-5.26,5.67-4.66c10.34,1.75,20.85,0.56,31.22,1.82c2.73,0.33,3.33-0.79,2.89-3.52c-2.7-16.62-4.3-33.38-5.52-50.16
		c-0.89-12.15-0.72-12.18-10.14-14c-2.43-0.47-4.89-0.76-7.33-1.15c-19.03-3.09-38.07-6.13-57.09-9.28
		c-23.4-3.87-46.83-7.63-70.16-11.91c-5.3-0.97-5.45,0.83-5.38,5.01c0.53,29.11-0.12,58.21,0.83,87.34
		c0.77,23.57,0.93,47.22-0.63,70.83c-0.73,11.07,0.66,22.24,0.7,33.32c0.3,90.16,0.17,180.33,0.17,270.5
		c10.33,0.11,20.65,0.21,30.98,0.32c1.99-0.05,3.98-0.15,5.97-0.15c43.87-0.01,87.73-0.08,131.6,0.1c2.23,0.01,3.97-0.18,5.1-0.92
		C538.19,694.02,538.33,693.5,538.56,693.02z"/>
	<polygon class="st0" points="538.59,678.04 538.22,691.09 538.57,693.29 536.04,694.54 	"/>
</g>
</svg>
